# xmcd
#
# Track frame offsets:
#	150
#	13594
#	26745
#	38350
#	50860
#	64346
#	79001
#	92779
#	107379
#	120655
#	133931
#	145356
#
# Disc length: 2089 seconds
#
# Revision: 1
# Processed by: cddbd v1.5.2PL0 Copyright (c) Steve Scherf et al.
# Submitted via: audiograbber 1.83.01
#
DISCID=a208270c
DTITLE=Various Artist - The Answers To The Questions
DYEAR=2009
DGENRE=Country/Pop
TTITLE0=Winston Francis - He'll Have To Go
TTITLE1=Pamela Waynard - He'll Have To Stay
TTITLE2=Jimmy James - Please Help Me I'm Falling
TTITLE3=Judy Boucher - I Can't Help You I'm Falling Too
TTITLE4=Winston Francis - Just One Time
TTITLE5=Pamela Waynard - I Want To See You Too, Just One Time
TTITLE6=Bobby Davis - Tell Laura I Love Her
TTITLE7=Valerie Harrison - Tell Tommy I Love Him
TTITLE8=Denzil Dennis - I Really Don't Want To Know
TTITLE9=Annette Dawes - I Really Want You To Know
TTITLE10=Judy Boucher - Last Date
TTITLE11=Lasscelles and Lindel - Last Date (instrumental)
EXTD=
EXTT0=
EXTT1=
EXTT2=
EXTT3=
EXTT4=
EXTT5=
EXTT6=
EXTT7=
EXTT8=
EXTT9=
EXTT10=
EXTT11=
PLAYORDER=
